<svg width="288" height="69" viewBox="0 0 288 69" fill="none" xmlns="http://www.w3.org/2000/svg">
<rect y="0.5" width="288" height="68" rx="14" fill="#191A23"/>
<path d="M41.5347 41.78C40.4947 41.78 39.5747 41.5667 38.7747 41.14C37.988 40.7 37.368 40.06 36.9147 39.22C36.4747 38.38 36.2547 37.34 36.2547 36.1V32.9C36.2547 31.0467 36.748 29.64 37.7347 28.68C38.7214 27.7067 40.048 27.22 41.7147 27.22C43.368 27.22 44.628 27.6733 45.4947 28.58C46.3614 29.4867 46.7947 30.7 46.7947 32.22V32.32H45.1347V32.18C45.1347 31.5133 45.0147 30.92 44.7747 30.4C44.5347 29.88 44.1614 29.4733 43.6547 29.18C43.148 28.8733 42.5014 28.72 41.7147 28.72C40.528 28.72 39.6014 29.0867 38.9347 29.82C38.268 30.54 37.9347 31.5533 37.9347 32.86V36.14C37.9347 37.4467 38.268 38.4667 38.9347 39.2C39.6014 39.92 40.5347 40.28 41.7347 40.28C42.908 40.28 43.768 39.9467 44.3147 39.28C44.8747 38.6133 45.1547 37.7267 45.1547 36.62V36.28H40.9147V34.84H46.7947V41.5H45.2747V39.98H44.9947C44.848 40.2733 44.6414 40.56 44.3747 40.84C44.108 41.12 43.748 41.3467 43.2947 41.52C42.8414 41.6933 42.2547 41.78 41.5347 41.78ZM54.3978 41.78C53.4111 41.78 52.5445 41.5733 51.7978 41.16C51.0511 40.7333 50.4711 40.14 50.0578 39.38C49.6445 38.62 49.4378 37.74 49.4378 36.74V36.5C49.4378 35.4867 49.6445 34.6 50.0578 33.84C50.4711 33.08 51.0445 32.4933 51.7778 32.08C52.5111 31.6533 53.3511 31.44 54.2978 31.44C55.2178 31.44 56.0311 31.64 56.7378 32.04C57.4445 32.4267 57.9978 32.9867 58.3978 33.72C58.7978 34.4533 58.9978 35.3133 58.9978 36.3V37.02H51.0178C51.0578 38.0733 51.3978 38.9 52.0378 39.5C52.6778 40.0867 53.4778 40.38 54.4378 40.38C55.2778 40.38 55.9245 40.1867 56.3778 39.8C56.8311 39.4133 57.1778 38.9533 57.4178 38.42L58.7778 39.08C58.5778 39.4933 58.2978 39.9067 57.9378 40.32C57.5911 40.7333 57.1311 41.08 56.5578 41.36C55.9978 41.64 55.2778 41.78 54.3978 41.78ZM51.0378 35.72H57.3978C57.3445 34.8133 57.0311 34.1067 56.4578 33.6C55.8978 33.0933 55.1778 32.84 54.2978 32.84C53.4045 32.84 52.6711 33.0933 52.0978 33.6C51.5245 34.1067 51.1711 34.8133 51.0378 35.72ZM64.9631 41.5C64.4031 41.5 63.9698 41.3467 63.6631 41.04C63.3698 40.7333 63.2231 40.3133 63.2231 39.78V33.1H60.2831V31.72H63.2231V28.24H64.8031V31.72H68.0031V33.1H64.8031V39.54C64.8031 39.94 64.9965 40.14 65.3831 40.14H67.5631V41.5H64.9631ZM76.8791 45.5V44.1H82.4791C82.8657 44.1 83.0591 43.9 83.0591 43.5V39.94H82.7791C82.6457 40.22 82.4391 40.5 82.1591 40.78C81.8924 41.0467 81.5391 41.2667 81.0991 41.44C80.6591 41.6 80.1057 41.68 79.4391 41.68C78.7324 41.68 78.0791 41.5267 77.4791 41.22C76.8924 40.9133 76.4257 40.46 76.0791 39.86C75.7457 39.26 75.5791 38.5267 75.5791 37.66V31.72H77.1591V37.54C77.1591 38.5 77.3991 39.2 77.8791 39.64C78.3724 40.08 79.0324 40.3 79.8591 40.3C80.7924 40.3 81.5591 39.9933 82.1591 39.38C82.7591 38.7667 83.0591 37.8533 83.0591 36.64V31.72H84.6391V43.78C84.6391 44.3133 84.4857 44.7333 84.1791 45.04C83.8857 45.3467 83.4524 45.5 82.8791 45.5H76.8791ZM92.4652 41.78C91.4785 41.78 90.6052 41.5733 89.8452 41.16C89.0985 40.7467 88.5118 40.1667 88.0852 39.42C87.6718 38.66 87.4652 37.7667 87.4652 36.74V36.48C87.4652 35.4667 87.6718 34.58 88.0852 33.82C88.5118 33.06 89.0985 32.4733 89.8452 32.06C90.6052 31.6467 91.4785 31.44 92.4652 31.44C93.4518 31.44 94.3185 31.6467 95.0652 32.06C95.8252 32.4733 96.4118 33.06 96.8252 33.82C97.2518 34.58 97.4652 35.4667 97.4652 36.48V36.74C97.4652 37.7667 97.2518 38.66 96.8252 39.42C96.4118 40.1667 95.8252 40.7467 95.0652 41.16C94.3185 41.5733 93.4518 41.78 92.4652 41.78ZM92.4652 40.36C93.5052 40.36 94.3318 40.0333 94.9452 39.38C95.5718 38.7133 95.8852 37.82 95.8852 36.7V36.52C95.8852 35.4 95.5718 34.5133 94.9452 33.86C94.3318 33.1933 93.5052 32.86 92.4652 32.86C91.4385 32.86 90.6118 33.1933 89.9852 33.86C89.3585 34.5133 89.0452 35.4 89.0452 36.52V36.7C89.0452 37.82 89.3585 38.7133 89.9852 39.38C90.6118 40.0333 91.4385 40.36 92.4652 40.36ZM104.048 41.68C103.342 41.68 102.688 41.5267 102.088 41.22C101.502 40.9133 101.035 40.46 100.688 39.86C100.355 39.2467 100.188 38.5067 100.188 37.64V31.72H101.768V37.52C101.768 38.4933 102.008 39.2 102.488 39.64C102.982 40.08 103.642 40.3 104.468 40.3C105.402 40.3 106.168 39.9933 106.768 39.38C107.368 38.7667 107.668 37.8533 107.668 36.64V31.72H109.248V41.5H107.708V39.84H107.428C107.215 40.3067 106.848 40.7333 106.328 41.12C105.808 41.4933 105.048 41.68 104.048 41.68ZM112.555 41.5V31.72H114.095V32.92H114.375C114.548 32.4933 114.815 32.18 115.175 31.98C115.535 31.78 116.008 31.68 116.595 31.68H117.755V33.12H116.495C115.788 33.12 115.215 33.32 114.775 33.72C114.348 34.1067 114.135 34.7133 114.135 35.54V41.5H112.555ZM127.15 41.5V33.1H124.15V31.72H127.15V29.22C127.15 28.6867 127.297 28.2667 127.59 27.96C127.897 27.6533 128.33 27.5 128.89 27.5H131.35V28.86H129.33C128.93 28.86 128.73 29.06 128.73 29.46V31.72H131.81V33.1H128.73V41.5H127.15ZM134.078 41.5V31.72H135.618V32.92H135.898C136.071 32.4933 136.338 32.18 136.698 31.98C137.058 31.78 137.531 31.68 138.118 31.68H139.278V33.12H138.018C137.311 33.12 136.738 33.32 136.298 33.72C135.871 34.1067 135.658 34.7133 135.658 35.54V41.5H134.078ZM145.745 41.78C144.759 41.78 143.892 41.5733 143.145 41.16C142.399 40.7333 141.819 40.14 141.405 39.38C140.992 38.62 140.785 37.74 140.785 36.74V36.5C140.785 35.4867 140.992 34.6 141.405 33.84C141.819 33.08 142.392 32.4933 143.125 32.08C143.859 31.6533 144.699 31.44 145.645 31.44C146.565 31.44 147.379 31.64 148.085 32.04C148.792 32.4267 149.345 32.9867 149.745 33.72C150.145 34.4533 150.345 35.3133 150.345 36.3V37.02H142.365C142.405 38.0733 142.745 38.9 143.385 39.5C144.025 40.0867 144.825 40.38 145.785 40.38C146.625 40.38 147.272 40.1867 147.725 39.8C148.179 39.4133 148.525 38.9533 148.765 38.42L150.125 39.08C149.925 39.4933 149.645 39.9067 149.285 40.32C148.939 40.7333 148.479 41.08 147.905 41.36C147.345 41.64 146.625 41.78 145.745 41.78ZM142.385 35.72H148.745C148.692 34.8133 148.379 34.1067 147.805 33.6C147.245 33.0933 146.525 32.84 145.645 32.84C144.752 32.84 144.019 33.0933 143.445 33.6C142.872 34.1067 142.519 34.8133 142.385 35.72ZM157.581 41.78C156.595 41.78 155.728 41.5733 154.981 41.16C154.235 40.7333 153.655 40.14 153.241 39.38C152.828 38.62 152.621 37.74 152.621 36.74V36.5C152.621 35.4867 152.828 34.6 153.241 33.84C153.655 33.08 154.228 32.4933 154.961 32.08C155.695 31.6533 156.535 31.44 157.481 31.44C158.401 31.44 159.215 31.64 159.921 32.04C160.628 32.4267 161.181 32.9867 161.581 33.72C161.981 34.4533 162.181 35.3133 162.181 36.3V37.02H154.201C154.241 38.0733 154.581 38.9 155.221 39.5C155.861 40.0867 156.661 40.38 157.621 40.38C158.461 40.38 159.108 40.1867 159.561 39.8C160.015 39.4133 160.361 38.9533 160.601 38.42L161.961 39.08C161.761 39.4933 161.481 39.9067 161.121 40.32C160.775 40.7333 160.315 41.08 159.741 41.36C159.181 41.64 158.461 41.78 157.581 41.78ZM154.221 35.72H160.581C160.528 34.8133 160.215 34.1067 159.641 33.6C159.081 33.0933 158.361 32.84 157.481 32.84C156.588 32.84 155.855 33.0933 155.281 33.6C154.708 34.1067 154.355 34.8133 154.221 35.72ZM170.074 45.5V31.72H171.614V33.34H171.894C172.147 32.8467 172.554 32.4067 173.114 32.02C173.687 31.6333 174.481 31.44 175.494 31.44C176.334 31.44 177.101 31.6467 177.794 32.06C178.501 32.46 179.061 33.0333 179.474 33.78C179.901 34.5267 180.114 35.4267 180.114 36.48V36.74C180.114 37.78 179.907 38.68 179.494 39.44C179.081 40.2 178.521 40.78 177.814 41.18C177.121 41.58 176.347 41.78 175.494 41.78C174.814 41.78 174.234 41.6867 173.754 41.5C173.287 41.3267 172.907 41.1 172.614 40.82C172.321 40.54 172.094 40.2533 171.934 39.96H171.654V45.5H170.074ZM175.074 40.38C176.087 40.38 176.907 40.06 177.534 39.42C178.174 38.7667 178.494 37.86 178.494 36.7V36.52C178.494 35.36 178.174 34.46 177.534 33.82C176.907 33.1667 176.087 32.84 175.074 32.84C174.074 32.84 173.247 33.1667 172.594 33.82C171.954 34.46 171.634 35.36 171.634 36.52V36.7C171.634 37.86 171.954 38.7667 172.594 39.42C173.247 40.06 174.074 40.38 175.074 40.38ZM182.945 41.5V31.72H184.485V32.92H184.765C184.938 32.4933 185.205 32.18 185.565 31.98C185.925 31.78 186.398 31.68 186.985 31.68H188.145V33.12H186.885C186.178 33.12 185.605 33.32 185.165 33.72C184.738 34.1067 184.525 34.7133 184.525 35.54V41.5H182.945ZM194.653 41.78C193.666 41.78 192.793 41.5733 192.033 41.16C191.286 40.7467 190.699 40.1667 190.273 39.42C189.859 38.66 189.653 37.7667 189.653 36.74V36.48C189.653 35.4667 189.859 34.58 190.273 33.82C190.699 33.06 191.286 32.4733 192.033 32.06C192.793 31.6467 193.666 31.44 194.653 31.44C195.639 31.44 196.506 31.6467 197.253 32.06C198.013 32.4733 198.599 33.06 199.013 33.82C199.439 34.58 199.653 35.4667 199.653 36.48V36.74C199.653 37.7667 199.439 38.66 199.013 39.42C198.599 40.1667 198.013 40.7467 197.253 41.16C196.506 41.5733 195.639 41.78 194.653 41.78ZM194.653 40.36C195.693 40.36 196.519 40.0333 197.133 39.38C197.759 38.7133 198.073 37.82 198.073 36.7V36.52C198.073 35.4 197.759 34.5133 197.133 33.86C196.519 33.1933 195.693 32.86 194.653 32.86C193.626 32.86 192.799 33.1933 192.173 33.86C191.546 34.5133 191.233 35.4 191.233 36.52V36.7C191.233 37.82 191.546 38.7133 192.173 39.38C192.799 40.0333 193.626 40.36 194.653 40.36ZM202.496 45.5V31.72H204.036V33.34H204.316C204.569 32.8467 204.976 32.4067 205.536 32.02C206.109 31.6333 206.903 31.44 207.916 31.44C208.756 31.44 209.523 31.6467 210.216 32.06C210.923 32.46 211.483 33.0333 211.896 33.78C212.323 34.5267 212.536 35.4267 212.536 36.48V36.74C212.536 37.78 212.329 38.68 211.916 39.44C211.503 40.2 210.943 40.78 210.236 41.18C209.543 41.58 208.769 41.78 207.916 41.78C207.236 41.78 206.656 41.6867 206.176 41.5C205.709 41.3267 205.329 41.1 205.036 40.82C204.743 40.54 204.516 40.2533 204.356 39.96H204.076V45.5H202.496ZM207.496 40.38C208.509 40.38 209.329 40.06 209.956 39.42C210.596 38.7667 210.916 37.86 210.916 36.7V36.52C210.916 35.36 210.596 34.46 209.956 33.82C209.329 33.1667 208.509 32.84 207.496 32.84C206.496 32.84 205.669 33.1667 205.016 33.82C204.376 34.46 204.056 35.36 204.056 36.52V36.7C204.056 37.86 204.376 38.7667 205.016 39.42C205.669 40.06 206.496 40.38 207.496 40.38ZM219.887 41.78C218.9 41.78 218.027 41.5733 217.267 41.16C216.52 40.7467 215.934 40.1667 215.507 39.42C215.094 38.66 214.887 37.7667 214.887 36.74V36.48C214.887 35.4667 215.094 34.58 215.507 33.82C215.934 33.06 216.52 32.4733 217.267 32.06C218.027 31.6467 218.9 31.44 219.887 31.44C220.874 31.44 221.74 31.6467 222.487 32.06C223.247 32.4733 223.834 33.06 224.247 33.82C224.674 34.58 224.887 35.4667 224.887 36.48V36.74C224.887 37.7667 224.674 38.66 224.247 39.42C223.834 40.1667 223.247 40.7467 222.487 41.16C221.74 41.5733 220.874 41.78 219.887 41.78ZM219.887 40.36C220.927 40.36 221.754 40.0333 222.367 39.38C222.994 38.7133 223.307 37.82 223.307 36.7V36.52C223.307 35.4 222.994 34.5133 222.367 33.86C221.754 33.1933 220.927 32.86 219.887 32.86C218.86 32.86 218.034 33.1933 217.407 33.86C216.78 34.5133 216.467 35.4 216.467 36.52V36.7C216.467 37.82 216.78 38.7133 217.407 39.38C218.034 40.0333 218.86 40.36 219.887 40.36ZM231.67 41.78C230.457 41.78 229.43 41.5 228.59 40.94C227.764 40.38 227.264 39.4933 227.09 38.28L228.59 37.94C228.697 38.58 228.897 39.0867 229.19 39.46C229.484 39.82 229.844 40.08 230.27 40.24C230.71 40.3867 231.177 40.46 231.67 40.46C232.404 40.46 232.984 40.3133 233.41 40.02C233.837 39.7267 234.05 39.3333 234.05 38.84C234.05 38.3333 233.844 37.98 233.43 37.78C233.03 37.5667 232.477 37.3933 231.77 37.26L230.95 37.12C230.324 37.0133 229.75 36.8467 229.23 36.62C228.71 36.3933 228.297 36.0867 227.99 35.7C227.684 35.3133 227.53 34.8267 227.53 34.24C227.53 33.36 227.87 32.6733 228.55 32.18C229.23 31.6867 230.13 31.44 231.25 31.44C232.357 31.44 233.25 31.6933 233.93 32.2C234.624 32.6933 235.07 33.3933 235.27 34.3L233.79 34.68C233.67 33.9733 233.384 33.48 232.93 33.2C232.477 32.9067 231.917 32.76 231.25 32.76C230.584 32.76 230.057 32.8867 229.67 33.14C229.284 33.38 229.09 33.74 229.09 34.22C229.09 34.6867 229.27 35.0333 229.63 35.26C230.004 35.4733 230.497 35.6333 231.11 35.74L231.93 35.88C232.624 36 233.244 36.1667 233.79 36.38C234.35 36.58 234.79 36.8733 235.11 37.26C235.444 37.6467 235.61 38.1533 235.61 38.78C235.61 39.74 235.25 40.48 234.53 41C233.824 41.52 232.87 41.78 231.67 41.78ZM241.199 41.78C240.519 41.78 239.899 41.66 239.339 41.42C238.779 41.18 238.339 40.8333 238.019 40.38C237.699 39.9267 237.539 39.3733 237.539 38.72C237.539 38.0533 237.699 37.5067 238.019 37.08C238.339 36.64 238.779 36.3133 239.339 36.1C239.899 35.8733 240.526 35.76 241.219 35.76H244.519V35.04C244.519 34.3467 244.312 33.8 243.899 33.4C243.499 33 242.899 32.8 242.099 32.8C241.312 32.8 240.699 32.9933 240.259 33.38C239.819 33.7533 239.519 34.26 239.359 34.9L237.879 34.42C238.039 33.8733 238.292 33.38 238.639 32.94C238.986 32.4867 239.446 32.1267 240.019 31.86C240.606 31.58 241.306 31.44 242.119 31.44C243.372 31.44 244.346 31.7667 245.039 32.42C245.732 33.06 246.079 33.9667 246.079 35.14V39.56C246.079 39.96 246.266 40.16 246.639 40.16H247.539V41.5H246.159C245.719 41.5 245.366 41.38 245.099 41.14C244.832 40.8867 244.699 40.5533 244.699 40.14V40.04H244.459C244.312 40.2933 244.112 40.56 243.859 40.84C243.619 41.1067 243.286 41.3267 242.859 41.5C242.432 41.6867 241.879 41.78 241.199 41.78ZM241.379 40.42C242.312 40.42 243.066 40.1467 243.639 39.6C244.226 39.04 244.519 38.26 244.519 37.26V37.04H241.279C240.652 37.04 240.132 37.18 239.719 37.46C239.319 37.7267 239.119 38.1333 239.119 38.68C239.119 39.2267 239.326 39.6533 239.739 39.96C240.166 40.2667 240.712 40.42 241.379 40.42ZM249.703 41.5V27.5H251.283V41.5H249.703Z" fill="white"/>
</svg>
