<svg width="556" height="68" viewBox="0 0 556 68" fill="none" xmlns="http://www.w3.org/2000/svg">
<rect width="556" height="68" rx="14" fill="#191A23"/>
<path d="M214.045 41.28C213.032 41.28 212.125 41.1 211.325 40.74C210.525 40.38 209.892 39.84 209.425 39.12C208.972 38.3867 208.745 37.4733 208.745 36.38V35.96H210.405V36.38C210.405 37.54 210.745 38.4067 211.425 38.98C212.105 39.54 212.978 39.82 214.045 39.82C215.138 39.82 215.972 39.5733 216.545 39.08C217.118 38.5867 217.405 37.9667 217.405 37.22C217.405 36.7 217.272 36.2867 217.005 35.98C216.752 35.6733 216.392 35.4267 215.925 35.24C215.458 35.04 214.912 34.8667 214.285 34.72L213.245 34.46C212.432 34.2467 211.712 33.9867 211.085 33.68C210.458 33.3733 209.965 32.9733 209.605 32.48C209.258 31.9733 209.085 31.3267 209.085 30.54C209.085 29.7533 209.278 29.0733 209.665 28.5C210.065 27.9267 210.618 27.4867 211.325 27.18C212.045 26.8733 212.872 26.72 213.805 26.72C214.752 26.72 215.598 26.8867 216.345 27.22C217.105 27.54 217.698 28.02 218.125 28.66C218.565 29.2867 218.785 30.08 218.785 31.04V31.88H217.125V31.04C217.125 30.36 216.978 29.8133 216.685 29.4C216.405 28.9867 216.012 28.68 215.505 28.48C215.012 28.28 214.445 28.18 213.805 28.18C212.885 28.18 212.145 28.3867 211.585 28.8C211.025 29.2 210.745 29.7733 210.745 30.52C210.745 31.0133 210.865 31.4133 211.105 31.72C211.345 32.0267 211.685 32.28 212.125 32.48C212.565 32.6667 213.092 32.8333 213.705 32.98L214.745 33.24C215.558 33.4133 216.285 33.6533 216.925 33.96C217.578 34.2533 218.098 34.66 218.485 35.18C218.872 35.6867 219.065 36.3533 219.065 37.18C219.065 38.0067 218.858 38.7267 218.445 39.34C218.032 39.9533 217.445 40.4333 216.685 40.78C215.938 41.1133 215.058 41.28 214.045 41.28ZM226.191 41.28C225.204 41.28 224.337 41.0733 223.591 40.66C222.844 40.2333 222.264 39.64 221.851 38.88C221.437 38.12 221.231 37.24 221.231 36.24V36C221.231 34.9867 221.437 34.1 221.851 33.34C222.264 32.58 222.837 31.9933 223.571 31.58C224.304 31.1533 225.144 30.94 226.091 30.94C227.011 30.94 227.824 31.14 228.531 31.54C229.237 31.9267 229.791 32.4867 230.191 33.22C230.591 33.9533 230.791 34.8133 230.791 35.8V36.52H222.811C222.851 37.5733 223.191 38.4 223.831 39C224.471 39.5867 225.271 39.88 226.231 39.88C227.071 39.88 227.717 39.6867 228.171 39.3C228.624 38.9133 228.971 38.4533 229.211 37.92L230.571 38.58C230.371 38.9933 230.091 39.4067 229.731 39.82C229.384 40.2333 228.924 40.58 228.351 40.86C227.791 41.14 227.071 41.28 226.191 41.28ZM222.831 35.22H229.191C229.137 34.3133 228.824 33.6067 228.251 33.1C227.691 32.5933 226.971 32.34 226.091 32.34C225.197 32.34 224.464 32.5933 223.891 33.1C223.317 33.6067 222.964 34.3133 222.831 35.22ZM233.547 41V31.22H235.087V32.88H235.367C235.58 32.4133 235.94 31.9933 236.447 31.62C236.967 31.2333 237.727 31.04 238.727 31.04C239.46 31.04 240.113 31.1933 240.687 31.5C241.273 31.8067 241.74 32.26 242.087 32.86C242.433 33.46 242.607 34.2 242.607 35.08V41H241.027V35.2C241.027 34.2267 240.78 33.52 240.287 33.08C239.807 32.64 239.153 32.42 238.327 32.42C237.38 32.42 236.607 32.7267 236.007 33.34C235.42 33.9533 235.127 34.8667 235.127 36.08V41H233.547ZM249.952 41.28C249.112 41.28 248.339 41.08 247.632 40.68C246.926 40.28 246.366 39.7 245.952 38.94C245.539 38.18 245.332 37.28 245.332 36.24V35.98C245.332 34.94 245.539 34.0467 245.952 33.3C246.366 32.54 246.919 31.96 247.612 31.56C248.319 31.1467 249.099 30.94 249.952 30.94C250.632 30.94 251.206 31.0333 251.672 31.22C252.152 31.3933 252.539 31.62 252.832 31.9C253.126 32.1667 253.352 32.4533 253.512 32.76H253.792V27H255.372V41H253.832V39.38H253.552C253.286 39.8733 252.872 40.3133 252.312 40.7C251.752 41.0867 250.966 41.28 249.952 41.28ZM250.372 39.88C251.386 39.88 252.206 39.56 252.832 38.92C253.472 38.2667 253.792 37.36 253.792 36.2V36.02C253.792 34.86 253.472 33.96 252.832 33.32C252.206 32.6667 251.386 32.34 250.372 32.34C249.372 32.34 248.546 32.6667 247.892 33.32C247.252 33.96 246.932 34.86 246.932 36.02V36.2C246.932 37.36 247.252 38.2667 247.892 38.92C248.546 39.56 249.372 39.88 250.372 39.88ZM263.76 41V27H266.96L270.68 39.94H270.94L274.66 27H277.86V41H276.24V28.1H275.96L272.26 41H269.36L265.66 28.1H265.38V41H263.76ZM285.605 41.28C284.618 41.28 283.752 41.0733 283.005 40.66C282.258 40.2333 281.678 39.64 281.265 38.88C280.852 38.12 280.645 37.24 280.645 36.24V36C280.645 34.9867 280.852 34.1 281.265 33.34C281.678 32.58 282.252 31.9933 282.985 31.58C283.718 31.1533 284.558 30.94 285.505 30.94C286.425 30.94 287.238 31.14 287.945 31.54C288.652 31.9267 289.205 32.4867 289.605 33.22C290.005 33.9533 290.205 34.8133 290.205 35.8V36.52H282.225C282.265 37.5733 282.605 38.4 283.245 39C283.885 39.5867 284.685 39.88 285.645 39.88C286.485 39.88 287.132 39.6867 287.585 39.3C288.038 38.9133 288.385 38.4533 288.625 37.92L289.985 38.58C289.785 38.9933 289.505 39.4067 289.145 39.82C288.798 40.2333 288.338 40.58 287.765 40.86C287.205 41.14 286.485 41.28 285.605 41.28ZM282.245 35.22H288.605C288.552 34.3133 288.238 33.6067 287.665 33.1C287.105 32.5933 286.385 32.34 285.505 32.34C284.612 32.34 283.878 32.5933 283.305 33.1C282.732 33.6067 282.378 34.3133 282.245 35.22ZM296.901 41.28C295.687 41.28 294.661 41 293.821 40.44C292.994 39.88 292.494 38.9933 292.321 37.78L293.821 37.44C293.927 38.08 294.127 38.5867 294.421 38.96C294.714 39.32 295.074 39.58 295.501 39.74C295.941 39.8867 296.407 39.96 296.901 39.96C297.634 39.96 298.214 39.8133 298.641 39.52C299.067 39.2267 299.281 38.8333 299.281 38.34C299.281 37.8333 299.074 37.48 298.661 37.28C298.261 37.0667 297.707 36.8933 297.001 36.76L296.181 36.62C295.554 36.5133 294.981 36.3467 294.461 36.12C293.941 35.8933 293.527 35.5867 293.221 35.2C292.914 34.8133 292.761 34.3267 292.761 33.74C292.761 32.86 293.101 32.1733 293.781 31.68C294.461 31.1867 295.361 30.94 296.481 30.94C297.587 30.94 298.481 31.1933 299.161 31.7C299.854 32.1933 300.301 32.8933 300.501 33.8L299.021 34.18C298.901 33.4733 298.614 32.98 298.161 32.7C297.707 32.4067 297.147 32.26 296.481 32.26C295.814 32.26 295.287 32.3867 294.901 32.64C294.514 32.88 294.321 33.24 294.321 33.72C294.321 34.1867 294.501 34.5333 294.861 34.76C295.234 34.9733 295.727 35.1333 296.341 35.24L297.161 35.38C297.854 35.5 298.474 35.6667 299.021 35.88C299.581 36.08 300.021 36.3733 300.341 36.76C300.674 37.1467 300.841 37.6533 300.841 38.28C300.841 39.24 300.481 39.98 299.761 40.5C299.054 41.02 298.101 41.28 296.901 41.28ZM307.448 41.28C306.234 41.28 305.208 41 304.368 40.44C303.541 39.88 303.041 38.9933 302.868 37.78L304.368 37.44C304.474 38.08 304.674 38.5867 304.968 38.96C305.261 39.32 305.621 39.58 306.048 39.74C306.488 39.8867 306.954 39.96 307.448 39.96C308.181 39.96 308.761 39.8133 309.188 39.52C309.614 39.2267 309.828 38.8333 309.828 38.34C309.828 37.8333 309.621 37.48 309.208 37.28C308.808 37.0667 308.254 36.8933 307.548 36.76L306.728 36.62C306.101 36.5133 305.528 36.3467 305.008 36.12C304.488 35.8933 304.074 35.5867 303.768 35.2C303.461 34.8133 303.308 34.3267 303.308 33.74C303.308 32.86 303.648 32.1733 304.328 31.68C305.008 31.1867 305.908 30.94 307.028 30.94C308.134 30.94 309.028 31.1933 309.708 31.7C310.401 32.1933 310.848 32.8933 311.048 33.8L309.568 34.18C309.448 33.4733 309.161 32.98 308.708 32.7C308.254 32.4067 307.694 32.26 307.028 32.26C306.361 32.26 305.834 32.3867 305.448 32.64C305.061 32.88 304.868 33.24 304.868 33.72C304.868 34.1867 305.048 34.5333 305.408 34.76C305.781 34.9733 306.274 35.1333 306.888 35.24L307.708 35.38C308.401 35.5 309.021 35.6667 309.568 35.88C310.128 36.08 310.568 36.3733 310.888 36.76C311.221 37.1467 311.388 37.6533 311.388 38.28C311.388 39.24 311.028 39.98 310.308 40.5C309.601 41.02 308.648 41.28 307.448 41.28ZM316.976 41.28C316.296 41.28 315.676 41.16 315.116 40.92C314.556 40.68 314.116 40.3333 313.796 39.88C313.476 39.4267 313.316 38.8733 313.316 38.22C313.316 37.5533 313.476 37.0067 313.796 36.58C314.116 36.14 314.556 35.8133 315.116 35.6C315.676 35.3733 316.303 35.26 316.996 35.26H320.296V34.54C320.296 33.8467 320.09 33.3 319.676 32.9C319.276 32.5 318.676 32.3 317.876 32.3C317.09 32.3 316.476 32.4933 316.036 32.88C315.596 33.2533 315.296 33.76 315.136 34.4L313.656 33.92C313.816 33.3733 314.07 32.88 314.416 32.44C314.763 31.9867 315.223 31.6267 315.796 31.36C316.383 31.08 317.083 30.94 317.896 30.94C319.15 30.94 320.123 31.2667 320.816 31.92C321.51 32.56 321.856 33.4667 321.856 34.64V39.06C321.856 39.46 322.043 39.66 322.416 39.66H323.316V41H321.936C321.496 41 321.143 40.88 320.876 40.64C320.61 40.3867 320.476 40.0533 320.476 39.64V39.54H320.236C320.09 39.7933 319.89 40.06 319.636 40.34C319.396 40.6067 319.063 40.8267 318.636 41C318.21 41.1867 317.656 41.28 316.976 41.28ZM317.156 39.92C318.09 39.92 318.843 39.6467 319.416 39.1C320.003 38.54 320.296 37.76 320.296 36.76V36.54H317.056C316.43 36.54 315.91 36.68 315.496 36.96C315.096 37.2267 314.896 37.6333 314.896 38.18C314.896 38.7267 315.103 39.1533 315.516 39.46C315.943 39.7667 316.49 39.92 317.156 39.92ZM324.727 36.16V35.88C324.727 34.8533 324.934 33.9733 325.347 33.24C325.76 32.5067 326.32 31.94 327.027 31.54C327.734 31.14 328.507 30.94 329.347 30.94C330.374 30.94 331.16 31.14 331.707 31.54C332.267 31.9267 332.68 32.36 332.947 32.84H333.227V31.22H334.727V43.28C334.727 43.8133 334.58 44.2333 334.287 44.54C333.994 44.8467 333.567 45 333.007 45H326.367V43.6H332.587C332.987 43.6 333.187 43.4 333.187 43V39.28H332.907C332.747 39.5733 332.52 39.86 332.227 40.14C331.934 40.42 331.554 40.6533 331.087 40.84C330.62 41.0133 330.04 41.1 329.347 41.1C328.507 41.1 327.734 40.9 327.027 40.5C326.32 40.1 325.76 39.5333 325.347 38.8C324.934 38.0533 324.727 37.1733 324.727 36.16ZM329.767 39.7C330.78 39.7 331.6 39.38 332.227 38.74C332.867 38.1 333.187 37.22 333.187 36.1V35.94C333.187 34.8067 332.867 33.9267 332.227 33.3C331.6 32.66 330.78 32.34 329.767 32.34C328.767 32.34 327.94 32.66 327.287 33.3C326.647 33.9267 326.327 34.8067 326.327 35.94V36.1C326.327 37.22 326.647 38.1 327.287 38.74C327.94 39.38 328.767 39.7 329.767 39.7ZM342.519 41.28C341.532 41.28 340.666 41.0733 339.919 40.66C339.172 40.2333 338.592 39.64 338.179 38.88C337.766 38.12 337.559 37.24 337.559 36.24V36C337.559 34.9867 337.766 34.1 338.179 33.34C338.592 32.58 339.166 31.9933 339.899 31.58C340.632 31.1533 341.472 30.94 342.419 30.94C343.339 30.94 344.152 31.14 344.859 31.54C345.566 31.9267 346.119 32.4867 346.519 33.22C346.919 33.9533 347.119 34.8133 347.119 35.8V36.52H339.139C339.179 37.5733 339.519 38.4 340.159 39C340.799 39.5867 341.599 39.88 342.559 39.88C343.399 39.88 344.046 39.6867 344.499 39.3C344.952 38.9133 345.299 38.4533 345.539 37.92L346.899 38.58C346.699 38.9933 346.419 39.4067 346.059 39.82C345.712 40.2333 345.252 40.58 344.679 40.86C344.119 41.14 343.399 41.28 342.519 41.28ZM339.159 35.22H345.519C345.466 34.3133 345.152 33.6067 344.579 33.1C344.019 32.5933 343.299 32.34 342.419 32.34C341.526 32.34 340.792 32.5933 340.219 33.1C339.646 33.6067 339.292 34.3133 339.159 35.22Z" fill="white"/>
</svg>
