<svg width="249" height="68" viewBox="0 0 249 68" fill="none" xmlns="http://www.w3.org/2000/svg">
<rect width="249" height="68" rx="14" fill="#B9FF66"/>
<path d="M41.3166 41.28C40.3033 41.28 39.3966 41.1 38.5966 40.74C37.7966 40.38 37.1633 39.84 36.6966 39.12C36.2433 38.3867 36.0166 37.4733 36.0166 36.38V35.96H37.6766V36.38C37.6766 37.54 38.0166 38.4067 38.6966 38.98C39.3766 39.54 40.25 39.82 41.3166 39.82C42.41 39.82 43.2433 39.5733 43.8166 39.08C44.39 38.5867 44.6766 37.9667 44.6766 37.22C44.6766 36.7 44.5433 36.2867 44.2766 35.98C44.0233 35.6733 43.6633 35.4267 43.1966 35.24C42.73 35.04 42.1833 34.8667 41.5566 34.72L40.5166 34.46C39.7033 34.2467 38.9833 33.9867 38.3566 33.68C37.73 33.3733 37.2366 32.9733 36.8766 32.48C36.53 31.9733 36.3566 31.3267 36.3566 30.54C36.3566 29.7533 36.55 29.0733 36.9366 28.5C37.3366 27.9267 37.89 27.4867 38.5966 27.18C39.3166 26.8733 40.1433 26.72 41.0766 26.72C42.0233 26.72 42.87 26.8867 43.6166 27.22C44.3766 27.54 44.97 28.02 45.3966 28.66C45.8366 29.2867 46.0566 30.08 46.0566 31.04V31.88H44.3966V31.04C44.3966 30.36 44.25 29.8133 43.9566 29.4C43.6766 28.9867 43.2833 28.68 42.7766 28.48C42.2833 28.28 41.7166 28.18 41.0766 28.18C40.1566 28.18 39.4166 28.3867 38.8566 28.8C38.2966 29.2 38.0166 29.7733 38.0166 30.52C38.0166 31.0133 38.1366 31.4133 38.3766 31.72C38.6166 32.0267 38.9566 32.28 39.3966 32.48C39.8366 32.6667 40.3633 32.8333 40.9766 32.98L42.0166 33.24C42.83 33.4133 43.5566 33.6533 44.1966 33.96C44.85 34.2533 45.37 34.66 45.7566 35.18C46.1433 35.6867 46.3366 36.3533 46.3366 37.18C46.3366 38.0067 46.13 38.7267 45.7166 39.34C45.3033 39.9533 44.7166 40.4333 43.9566 40.78C43.21 41.1133 42.33 41.28 41.3166 41.28ZM52.7223 41.18C52.0156 41.18 51.3623 41.0267 50.7623 40.72C50.1756 40.4133 49.7089 39.96 49.3623 39.36C49.0289 38.7467 48.8623 38.0067 48.8623 37.14V31.22H50.4423V37.02C50.4423 37.9933 50.6823 38.7 51.1623 39.14C51.6556 39.58 52.3156 39.8 53.1423 39.8C54.0756 39.8 54.8423 39.4933 55.4423 38.88C56.0423 38.2667 56.3423 37.3533 56.3423 36.14V31.22H57.9223V41H56.3823V39.34H56.1023C55.8889 39.8067 55.5223 40.2333 55.0023 40.62C54.4823 40.9933 53.7223 41.18 52.7223 41.18ZM66.6484 41.28C65.635 41.28 64.8417 41.0867 64.2684 40.7C63.7084 40.3133 63.3017 39.8733 63.0484 39.38H62.7684V41H61.2284V27H62.8084V32.76H63.0884C63.2484 32.4533 63.475 32.1667 63.7684 31.9C64.0617 31.62 64.4417 31.3933 64.9084 31.22C65.3884 31.0333 65.9684 30.94 66.6484 30.94C67.5017 30.94 68.275 31.1467 68.9684 31.56C69.675 31.96 70.235 32.54 70.6484 33.3C71.0617 34.0467 71.2684 34.94 71.2684 35.98V36.24C71.2684 37.28 71.055 38.18 70.6284 38.94C70.215 39.7 69.655 40.28 68.9484 40.68C68.255 41.08 67.4884 41.28 66.6484 41.28ZM66.2284 39.88C67.2417 39.88 68.0617 39.56 68.6884 38.92C69.3284 38.2667 69.6484 37.36 69.6484 36.2V36.02C69.6484 34.86 69.3284 33.96 68.6884 33.32C68.0617 32.6667 67.2417 32.34 66.2284 32.34C65.2284 32.34 64.4017 32.6667 63.7484 33.32C63.1084 33.96 62.7884 34.86 62.7884 36.02V36.2C62.7884 37.36 63.1084 38.2667 63.7484 38.92C64.4017 39.56 65.2284 39.88 66.2284 39.88ZM78.0395 41.28C76.8261 41.28 75.7995 41 74.9595 40.44C74.1328 39.88 73.6328 38.9933 73.4595 37.78L74.9595 37.44C75.0661 38.08 75.2661 38.5867 75.5595 38.96C75.8528 39.32 76.2128 39.58 76.6395 39.74C77.0795 39.8867 77.5461 39.96 78.0395 39.96C78.7728 39.96 79.3528 39.8133 79.7795 39.52C80.2061 39.2267 80.4195 38.8333 80.4195 38.34C80.4195 37.8333 80.2128 37.48 79.7995 37.28C79.3995 37.0667 78.8461 36.8933 78.1395 36.76L77.3195 36.62C76.6928 36.5133 76.1195 36.3467 75.5995 36.12C75.0795 35.8933 74.6661 35.5867 74.3595 35.2C74.0528 34.8133 73.8995 34.3267 73.8995 33.74C73.8995 32.86 74.2395 32.1733 74.9195 31.68C75.5995 31.1867 76.4995 30.94 77.6195 30.94C78.7261 30.94 79.6195 31.1933 80.2995 31.7C80.9928 32.1933 81.4395 32.8933 81.6395 33.8L80.1595 34.18C80.0395 33.4733 79.7528 32.98 79.2995 32.7C78.8461 32.4067 78.2861 32.26 77.6195 32.26C76.9528 32.26 76.4261 32.3867 76.0395 32.64C75.6528 32.88 75.4595 33.24 75.4595 33.72C75.4595 34.1867 75.6395 34.5333 75.9995 34.76C76.3728 34.9733 76.8661 35.1333 77.4795 35.24L78.2995 35.38C78.9928 35.5 79.6128 35.6667 80.1595 35.88C80.7195 36.08 81.1595 36.3733 81.4795 36.76C81.8128 37.1467 81.9795 37.6533 81.9795 38.28C81.9795 39.24 81.6195 39.98 80.8995 40.5C80.1928 41.02 79.2395 41.28 78.0395 41.28ZM89.1463 41.28C88.1997 41.28 87.3463 41.08 86.5863 40.68C85.8397 40.2667 85.2463 39.68 84.8063 38.92C84.3797 38.16 84.1663 37.26 84.1663 36.22V36C84.1663 34.9467 84.3797 34.0467 84.8063 33.3C85.2463 32.54 85.8397 31.96 86.5863 31.56C87.3463 31.1467 88.1997 30.94 89.1463 30.94C90.0797 30.94 90.873 31.1133 91.5263 31.46C92.193 31.8067 92.713 32.2667 93.0863 32.84C93.473 33.4133 93.7197 34.0267 93.8263 34.68L92.2863 35C92.2197 34.52 92.0597 34.08 91.8063 33.68C91.5663 33.28 91.2263 32.96 90.7863 32.72C90.3463 32.48 89.8063 32.36 89.1663 32.36C88.513 32.36 87.9263 32.5067 87.4063 32.8C86.8997 33.0933 86.493 33.5133 86.1863 34.06C85.893 34.6067 85.7463 35.26 85.7463 36.02V36.2C85.7463 36.96 85.893 37.6133 86.1863 38.16C86.493 38.7067 86.8997 39.1267 87.4063 39.42C87.9263 39.7133 88.513 39.86 89.1663 39.86C90.1397 39.86 90.8797 39.6067 91.3863 39.1C91.9063 38.5933 92.2263 37.9667 92.3463 37.22L93.9063 37.56C93.7597 38.2 93.493 38.8067 93.1063 39.38C92.7197 39.9533 92.193 40.4133 91.5263 40.76C90.873 41.1067 90.0797 41.28 89.1463 41.28ZM96.5995 41V31.22H98.1395V32.42H98.4195C98.5928 31.9933 98.8595 31.68 99.2195 31.48C99.5795 31.28 100.053 31.18 100.639 31.18H101.799V32.62H100.539C99.8328 32.62 99.2595 32.82 98.8195 33.22C98.3928 33.6067 98.1795 34.2133 98.1795 35.04V41H96.5995ZM104.139 41V31.22H105.719V41H104.139ZM104.939 29.7C104.592 29.7 104.299 29.5867 104.059 29.36C103.832 29.1333 103.719 28.8467 103.719 28.5C103.719 28.14 103.832 27.8467 104.059 27.62C104.299 27.3933 104.592 27.28 104.939 27.28C105.285 27.28 105.572 27.3933 105.799 27.62C106.025 27.8467 106.139 28.14 106.139 28.5C106.139 28.8467 106.025 29.1333 105.799 29.36C105.572 29.5867 105.285 29.7 104.939 29.7ZM114.461 41.28C113.448 41.28 112.654 41.0867 112.081 40.7C111.521 40.3133 111.114 39.8733 110.861 39.38H110.581V41H109.041V27H110.621V32.76H110.901C111.061 32.4533 111.288 32.1667 111.581 31.9C111.874 31.62 112.254 31.3933 112.721 31.22C113.201 31.0333 113.781 30.94 114.461 30.94C115.314 30.94 116.088 31.1467 116.781 31.56C117.488 31.96 118.048 32.54 118.461 33.3C118.874 34.0467 119.081 34.94 119.081 35.98V36.24C119.081 37.28 118.868 38.18 118.441 38.94C118.028 39.7 117.468 40.28 116.761 40.68C116.068 41.08 115.301 41.28 114.461 41.28ZM114.041 39.88C115.054 39.88 115.874 39.56 116.501 38.92C117.141 38.2667 117.461 37.36 117.461 36.2V36.02C117.461 34.86 117.141 33.96 116.501 33.32C115.874 32.6667 115.054 32.34 114.041 32.34C113.041 32.34 112.214 32.6667 111.561 33.32C110.921 33.96 110.601 34.86 110.601 36.02V36.2C110.601 37.36 110.921 38.2667 111.561 38.92C112.214 39.56 113.041 39.88 114.041 39.88ZM126.392 41.28C125.405 41.28 124.539 41.0733 123.792 40.66C123.045 40.2333 122.465 39.64 122.052 38.88C121.639 38.12 121.432 37.24 121.432 36.24V36C121.432 34.9867 121.639 34.1 122.052 33.34C122.465 32.58 123.039 31.9933 123.772 31.58C124.505 31.1533 125.345 30.94 126.292 30.94C127.212 30.94 128.025 31.14 128.732 31.54C129.439 31.9267 129.992 32.4867 130.392 33.22C130.792 33.9533 130.992 34.8133 130.992 35.8V36.52H123.012C123.052 37.5733 123.392 38.4 124.032 39C124.672 39.5867 125.472 39.88 126.432 39.88C127.272 39.88 127.919 39.6867 128.372 39.3C128.825 38.9133 129.172 38.4533 129.412 37.92L130.772 38.58C130.572 38.9933 130.292 39.4067 129.932 39.82C129.585 40.2333 129.125 40.58 128.552 40.86C127.992 41.14 127.272 41.28 126.392 41.28ZM123.032 35.22H129.392C129.339 34.3133 129.025 33.6067 128.452 33.1C127.892 32.5933 127.172 32.34 126.292 32.34C125.399 32.34 124.665 32.5933 124.092 33.1C123.519 33.6067 123.165 34.3133 123.032 35.22ZM142.485 41C141.925 41 141.491 40.8467 141.185 40.54C140.891 40.2333 140.745 39.8133 140.745 39.28V32.6H137.805V31.22H140.745V27.74H142.325V31.22H145.525V32.6H142.325V39.04C142.325 39.44 142.518 39.64 142.905 39.64H145.085V41H142.485ZM152.252 41.28C151.266 41.28 150.392 41.0733 149.632 40.66C148.886 40.2467 148.299 39.6667 147.872 38.92C147.459 38.16 147.252 37.2667 147.252 36.24V35.98C147.252 34.9667 147.459 34.08 147.872 33.32C148.299 32.56 148.886 31.9733 149.632 31.56C150.392 31.1467 151.266 30.94 152.252 30.94C153.239 30.94 154.106 31.1467 154.852 31.56C155.612 31.9733 156.199 32.56 156.612 33.32C157.039 34.08 157.252 34.9667 157.252 35.98V36.24C157.252 37.2667 157.039 38.16 156.612 38.92C156.199 39.6667 155.612 40.2467 154.852 40.66C154.106 41.0733 153.239 41.28 152.252 41.28ZM152.252 39.86C153.292 39.86 154.119 39.5333 154.732 38.88C155.359 38.2133 155.672 37.32 155.672 36.2V36.02C155.672 34.9 155.359 34.0133 154.732 33.36C154.119 32.6933 153.292 32.36 152.252 32.36C151.226 32.36 150.399 32.6933 149.772 33.36C149.146 34.0133 148.832 34.9 148.832 36.02V36.2C148.832 37.32 149.146 38.2133 149.772 38.88C150.399 39.5333 151.226 39.86 152.252 39.86ZM165.232 41V31.22H166.772V32.88H167.052C167.266 32.4133 167.626 31.9933 168.132 31.62C168.652 31.2333 169.412 31.04 170.412 31.04C171.146 31.04 171.799 31.1933 172.372 31.5C172.959 31.8067 173.426 32.26 173.772 32.86C174.119 33.46 174.292 34.2 174.292 35.08V41H172.712V35.2C172.712 34.2267 172.466 33.52 171.972 33.08C171.492 32.64 170.839 32.42 170.012 32.42C169.066 32.42 168.292 32.7267 167.692 33.34C167.106 33.9533 166.812 34.8667 166.812 36.08V41H165.232ZM181.978 41.28C180.991 41.28 180.125 41.0733 179.378 40.66C178.631 40.2333 178.051 39.64 177.638 38.88C177.225 38.12 177.018 37.24 177.018 36.24V36C177.018 34.9867 177.225 34.1 177.638 33.34C178.051 32.58 178.625 31.9933 179.358 31.58C180.091 31.1533 180.931 30.94 181.878 30.94C182.798 30.94 183.611 31.14 184.318 31.54C185.025 31.9267 185.578 32.4867 185.978 33.22C186.378 33.9533 186.578 34.8133 186.578 35.8V36.52H178.598C178.638 37.5733 178.978 38.4 179.618 39C180.258 39.5867 181.058 39.88 182.018 39.88C182.858 39.88 183.505 39.6867 183.958 39.3C184.411 38.9133 184.758 38.4533 184.998 37.92L186.358 38.58C186.158 38.9933 185.878 39.4067 185.518 39.82C185.171 40.2333 184.711 40.58 184.138 40.86C183.578 41.14 182.858 41.28 181.978 41.28ZM178.618 35.22H184.978C184.925 34.3133 184.611 33.6067 184.038 33.1C183.478 32.5933 182.758 32.34 181.878 32.34C180.985 32.34 180.251 32.5933 179.678 33.1C179.105 33.6067 178.751 34.3133 178.618 35.22ZM190.499 41L188.539 31.22H190.139L191.759 39.94H192.039L194.179 31.22H196.799L198.939 39.94H199.219L200.839 31.22H202.439L200.479 41H197.779L195.619 32.28H195.359L193.199 41H190.499ZM208.996 41.28C207.783 41.28 206.756 41 205.916 40.44C205.09 39.88 204.59 38.9933 204.416 37.78L205.916 37.44C206.023 38.08 206.223 38.5867 206.516 38.96C206.81 39.32 207.17 39.58 207.596 39.74C208.036 39.8867 208.503 39.96 208.996 39.96C209.73 39.96 210.31 39.8133 210.736 39.52C211.163 39.2267 211.376 38.8333 211.376 38.34C211.376 37.8333 211.17 37.48 210.756 37.28C210.356 37.0667 209.803 36.8933 209.096 36.76L208.276 36.62C207.65 36.5133 207.076 36.3467 206.556 36.12C206.036 35.8933 205.623 35.5867 205.316 35.2C205.01 34.8133 204.856 34.3267 204.856 33.74C204.856 32.86 205.196 32.1733 205.876 31.68C206.556 31.1867 207.456 30.94 208.576 30.94C209.683 30.94 210.576 31.1933 211.256 31.7C211.95 32.1933 212.396 32.8933 212.596 33.8L211.116 34.18C210.996 33.4733 210.71 32.98 210.256 32.7C209.803 32.4067 209.243 32.26 208.576 32.26C207.91 32.26 207.383 32.3867 206.996 32.64C206.61 32.88 206.416 33.24 206.416 33.72C206.416 34.1867 206.596 34.5333 206.956 34.76C207.33 34.9733 207.823 35.1333 208.436 35.24L209.256 35.38C209.95 35.5 210.57 35.6667 211.116 35.88C211.676 36.08 212.116 36.3733 212.436 36.76C212.77 37.1467 212.936 37.6533 212.936 38.28C212.936 39.24 212.576 39.98 211.856 40.5C211.15 41.02 210.196 41.28 208.996 41.28Z" fill="black"/>
</svg>
